<svg width="26" height="22" viewBox="0 0 26 22" fill="none" xmlns="http://www.w3.org/2000/svg">
<path d="M17.5337 18.982L14.911 16.3576C13.8967 16.7203 12.8004 16.7874 11.7494 16.5513C10.6985 16.3151 9.73623 15.7854 8.97458 15.0238C8.21293 14.2621 7.68323 13.2999 7.4471 12.2489C7.21097 11.198 7.27812 10.1016 7.64075 9.08737L4.29325 5.73988C1.52425 8.20175 0 11 0 11C0 11 4.875 19.9375 13 19.9375C14.5607 19.9321 16.1036 19.6069 17.5337 18.982V18.982ZM8.46625 3.018C9.89634 2.39307 11.4393 2.06787 13 2.0625C21.125 2.0625 26 11 26 11C26 11 24.4741 13.7966 21.7084 16.2617L18.3576 12.911C18.7203 11.8967 18.7874 10.8004 18.5513 9.74943C18.3151 8.6985 17.7854 7.73623 17.0238 6.97458C16.2621 6.21293 15.2999 5.68323 14.2489 5.4471C13.198 5.21097 12.1016 5.27812 11.0874 5.64075L8.46625 3.01962V3.018Z" fill="#BBB7B7"/>
<path d="M8.97818 10.4248C8.88879 11.0493 8.94608 11.6861 9.1455 12.2846C9.34491 12.8831 9.68098 13.4269 10.1271 13.873C10.5732 14.3191 11.117 14.6552 11.7155 14.8546C12.3141 15.054 12.9508 15.1113 13.5753 15.0219L8.97656 10.4248H8.97818ZM17.0219 11.5753L12.4248 6.97656C13.0493 6.88717 13.6861 6.94445 14.2846 7.14387C14.8831 7.34329 15.4269 7.67936 15.873 8.12545C16.3191 8.57154 16.6552 9.11539 16.8546 9.71392C17.054 10.3124 17.1113 10.9492 17.0219 11.5737V11.5753ZM22.1748 21.3253L2.6748 1.8253L3.8253 0.674805L23.3253 20.1748L22.1748 21.3253Z" fill="#BBB7B7"/>
</svg>
