<svg width="26" height="21" viewBox="0 0 26 21" fill="none" xmlns="http://www.w3.org/2000/svg">
<path d="M7.2223 10.1115C7.2223 6.92009 9.80887 4.33352 13.0003 4.33352C16.1918 4.33352 18.7784 6.92009 18.7784 10.1115C18.7784 13.303 16.1918 15.8896 13.0003 15.8896C9.80887 15.8896 7.2223 13.303 7.2223 10.1115ZM13.0003 13.7228C14.9955 13.7228 16.6116 12.1068 16.6116 10.1115C16.6116 8.11632 14.9955 6.50028 13.0003 6.50028C12.9687 6.50028 12.9416 6.50028 12.8694 6.50028C12.9687 6.7305 13.0003 6.97426 13.0003 7.22253C13.0003 8.81601 11.7048 10.1115 10.1113 10.1115C9.86303 10.1115 9.61927 10.0799 9.38906 9.98064C9.38906 10.0529 9.38906 10.0799 9.38906 10.0709C9.38906 12.1068 11.0051 13.7228 13.0003 13.7228ZM4.3071 3.63835C6.43233 1.66299 9.35294 0 13.0003 0C16.6477 0 19.5683 1.66299 21.6944 3.63835C23.807 5.59746 25.2199 7.90416 25.888 9.55632C26.037 9.91293 26.037 10.3102 25.888 10.6668C25.2199 12.2783 23.807 14.585 21.6944 16.5847C19.5683 18.5619 16.6477 20.2231 13.0003 20.2231C9.35294 20.2231 6.43233 18.5619 4.3071 16.5847C2.19451 14.585 0.782504 12.2783 0.110853 10.6668C-0.0372766 10.3102 -0.0372766 9.91293 0.110853 9.55632C0.782504 7.90416 2.19451 5.59746 4.3071 3.63835ZM13.0003 2.16676C10.0571 2.16676 7.63759 3.50293 5.7823 5.2228C4.04438 6.83884 2.84454 8.7167 2.23152 10.1115C2.84454 11.4658 4.04438 13.3843 5.7823 15.0003C7.63759 16.7202 10.0571 18.0563 13.0003 18.0563C15.9435 18.0563 18.3631 16.7202 20.2183 15.0003C21.9563 13.3843 23.1164 11.4658 23.7709 10.1115C23.1164 8.7167 21.9563 6.83884 20.2183 5.2228C18.3631 3.50293 15.9435 2.16676 13.0003 2.16676Z" fill="#BBB7B7"/>
</svg>
