<svg width="26" height="21" viewBox="0 0 26 21" fill="none" xmlns="http://www.w3.org/2000/svg">
<path d="M6.12237 3.76886C7.92204 2.36731 10.2295 1.3001 13.0001 1.3001C16.2826 1.3001 18.911 2.79672 20.8244 4.57445C22.7257 6.33756 23.9972 8.41348 24.5985 9.90034C24.7325 10.2213 24.7325 10.5788 24.5985 10.8997C24.0541 12.2119 22.9613 14.0603 21.3526 15.7097L25.6263 19.0571C26.0488 19.3903 26.126 20.0037 25.7928 20.4262C25.4597 20.8487 24.8463 20.9259 24.4238 20.5928L0.373821 1.74251C-0.0499752 1.4102 -0.124278 0.797577 0.20791 0.373699C0.540139 -0.0500973 1.15276 -0.1244 1.57688 0.207788L6.12237 3.76886ZM7.7108 5.01726L9.57953 6.47975C10.4936 5.6835 11.692 5.20007 13.0001 5.20007C15.8723 5.20007 18.2001 7.52786 18.2001 10.4C18.2001 11.2613 17.9929 12.0697 17.6232 12.7847L19.8088 14.4991C21.1697 13.1138 22.1772 11.501 22.6932 10.4C22.1041 9.14472 21.0601 7.45474 19.496 6.00038C17.8263 4.45258 15.6489 3.21352 13.0001 3.21352C10.9486 3.21352 9.14485 3.97036 7.7108 5.01726ZM16.0429 11.5456C16.177 11.1881 16.2501 10.8022 16.2501 10.3635C16.2501 8.60442 14.7957 7.11349 13.0001 7.11349C12.9717 7.11349 12.9473 7.15005 12.8823 7.15005C12.9717 7.35724 13.0001 7.57661 13.0001 7.76349C13.0001 8.21442 12.9026 8.60442 12.732 8.94973L16.0429 11.5456ZM16.4248 16.839L18.127 18.1796C16.6523 18.9759 14.942 19.4999 13.0001 19.4999C9.71765 19.4999 7.08924 18.005 5.17582 16.2256C3.2754 14.4259 2.00466 12.35 1.40016 10.8997C1.26691 10.5788 1.26691 10.2213 1.40016 9.90034C1.78772 8.97004 2.4495 7.76755 3.37574 6.561L4.9077 7.76755C4.14801 8.7141 3.64671 9.65253 3.30911 10.3635C3.86039 11.6188 4.9402 13.3453 6.50424 14.7997C8.17392 16.3475 10.3514 17.55 13.0001 17.55C14.2473 17.55 15.3889 17.2818 16.4248 16.839ZM7.80017 10.3635C7.80017 10.2822 7.80423 10.1685 7.81236 10.0547L10.0914 11.8503C10.518 12.7075 11.3142 13.3494 12.2689 13.5322L14.552 15.3644C14.0604 15.4822 13.5404 15.6 12.9636 15.6C10.128 15.6 7.76361 13.2722 7.76361 10.3635H7.80017Z" fill="#BBB7B7"/>
</svg>
