<svg width="16" height="16" viewBox="0 0 16 16" fill="none" xmlns="http://www.w3.org/2000/svg">
<path d="M12 8C12 6.9 12.9 6 14 6C15.1 6 16 6.9 16 8C16 9.1 15.1 10 14 10C12.9 10 12 9.1 12 8ZM6 8C6 6.9 6.9 6 8 6C9.1 6 10 6.9 10 8C10 9.1 9.1 10 8 10C6.9 10 6 9.1 6 8ZM0 8C0 6.9 0.9 6 2 6C3.1 6 4 6.9 4 8C4 9.1 3.1 10 2 10C0.9 10 0 9.1 0 8ZM9 14C9 12.9 9.9 12 11 12C12.1 12 13 12.9 13 14C13 15.1 12.1 16 11 16C9.9 16 9 15.1 9 14ZM3 14C3 12.9 3.9 12 5 12C6.1 12 7 12.9 7 14C7 15.1 6.1 16 5 16C3.9 16 3 15.1 3 14ZM9 2C9 0.9 9.9 0 11 0C12.1 0 13 0.9 13 2C13 3.1 12.1 4 11 4C9.9 4 9 3.1 9 2ZM3 2C3 0.9 3.9 0 5 0C6.1 0 7 0.9 7 2C7 3.1 6.1 4 5 4C3.9 4 3 3.1 3 2Z" fill="white"/>
</svg>
