<svg width="28" height="28" viewBox="0 0 28 28" fill="none" xmlns="http://www.w3.org/2000/svg">
<path d="M25.1456 4.66664C25.0396 4.65572 24.9327 4.65572 24.8267 4.66664H3.04894C2.90936 4.66879 2.77071 4.68972 2.63672 4.72886L13.8756 15.9211L25.1456 4.66664Z" fill="#BBB7B7"/>
<path d="M26.2965 5.7478L14.9721 17.0256C14.6806 17.3153 14.2864 17.4779 13.8754 17.4779C13.4645 17.4779 13.0702 17.3153 12.7788 17.0256L1.55542 5.83336C1.52092 5.96017 1.50262 6.09084 1.50098 6.22225V21.7778C1.50098 22.1904 1.66486 22.586 1.95659 22.8778C2.24831 23.1695 2.64397 23.3334 3.05653 23.3334H24.8343C25.2469 23.3334 25.6425 23.1695 25.9343 22.8778C26.226 22.586 26.3899 22.1904 26.3899 21.7778V6.22225C26.3837 6.0602 26.3522 5.90012 26.2965 5.7478V5.7478ZM4.12209 21.7778H3.04098V20.6656L8.69542 15.0578L9.79209 16.1545L4.12209 21.7778ZM24.8188 21.7778H23.7299L18.0599 16.1545L19.1565 15.0578L24.811 20.6656L24.8188 21.7778Z" fill="#BBB7B7"/>
</svg>
