<svg width="26" height="20" viewBox="0 0 26 20" fill="none" xmlns="http://www.w3.org/2000/svg">
<path d="M24.1456 0.66664C24.0396 0.655716 23.9327 0.655716 23.8267 0.66664H2.04894C1.90936 0.668791 1.77071 0.68972 1.63672 0.728863L12.8756 11.9211L24.1456 0.66664Z" fill="#BBB7B7"/>
<path d="M25.2965 1.7478L13.9721 13.0256C13.6806 13.3153 13.2864 13.4779 12.8754 13.4779C12.4645 13.4779 12.0702 13.3153 11.7788 13.0256L0.555421 1.83336C0.520918 1.96017 0.502624 2.09084 0.500977 2.22225V17.7778C0.500977 18.1904 0.664865 18.586 0.956588 18.8778C1.24831 19.1695 1.64397 19.3334 2.05653 19.3334H23.8343C24.2469 19.3334 24.6425 19.1695 24.9343 18.8778C25.226 18.586 25.3899 18.1904 25.3899 17.7778V2.22225C25.3837 2.0602 25.3522 1.90012 25.2965 1.7478V1.7478ZM3.12209 17.7778H2.04098V16.6656L7.69542 11.0578L8.79209 12.1545L3.12209 17.7778ZM23.8188 17.7778H22.7299L17.0599 12.1545L18.1565 11.0578L23.811 16.6656L23.8188 17.7778Z" fill="#BBB7B7"/>
</svg>
