<svg width="23" height="22" viewBox="0 0 23 22" fill="none" xmlns="http://www.w3.org/2000/svg">
<path d="M23 10.3139C23 16.0101 17.8509 20.6278 11.5 20.6278C10.361 20.6294 9.22672 20.4778 8.12619 20.177C7.28669 20.6131 5.359 21.45 2.116 21.9952C1.8285 22.0423 1.61 21.7358 1.72356 21.4618C2.23244 20.23 2.69244 18.5886 2.83044 17.0916C1.0695 15.2793 0 12.9071 0 10.3139C0 4.61769 5.14912 0 11.5 0C17.8509 0 23 4.61769 23 10.3139ZM6.46875 5.89367C6.27813 5.89367 6.09531 5.97128 5.96052 6.10944C5.82573 6.2476 5.75 6.43499 5.75 6.63037C5.75 6.82576 5.82573 7.01315 5.96052 7.15131C6.09531 7.28947 6.27813 7.36708 6.46875 7.36708H16.5312C16.7219 7.36708 16.9047 7.28947 17.0395 7.15131C17.1743 7.01315 17.25 6.82576 17.25 6.63037C17.25 6.43499 17.1743 6.2476 17.0395 6.10944C16.9047 5.97128 16.7219 5.89367 16.5312 5.89367H6.46875ZM6.46875 9.57721C6.27813 9.57721 6.09531 9.65483 5.96052 9.79298C5.82573 9.93114 5.75 10.1185 5.75 10.3139C5.75 10.5093 5.82573 10.6967 5.96052 10.8348C6.09531 10.973 6.27813 11.0506 6.46875 11.0506H16.5312C16.7219 11.0506 16.9047 10.973 17.0395 10.8348C17.1743 10.6967 17.25 10.5093 17.25 10.3139C17.25 10.1185 17.1743 9.93114 17.0395 9.79298C16.9047 9.65483 16.7219 9.57721 16.5312 9.57721H6.46875ZM6.46875 13.2607C6.27813 13.2607 6.09531 13.3384 5.96052 13.4765C5.82573 13.6147 5.75 13.8021 5.75 13.9975C5.75 14.1928 5.82573 14.3802 5.96052 14.5184C6.09531 14.6565 6.27813 14.7342 6.46875 14.7342H12.2188C12.4094 14.7342 12.5922 14.6565 12.727 14.5184C12.8618 14.3802 12.9375 14.1928 12.9375 13.9975C12.9375 13.8021 12.8618 13.6147 12.727 13.4765C12.5922 13.3384 12.4094 13.2607 12.2188 13.2607H6.46875Z" fill="#BBB7B7"/>
</svg>
